<?xml version="1.0" standalone="no"?><!-- Generator: Gravit.io --><svg xmlns="http://www.w3.org/2000/svg" xmlns:xlink="http://www.w3.org/1999/xlink" style="isolation:isolate" viewBox="-80 -91 290 229" width="290" height="229"><rect x="-80" y="-91" width="290" height="229" transform="matrix(1,0,0,1,0,0)" fill="rgb(255,255,255)"/><path d="M -36.144 0 L 136.144 0 C 143.791 0 150 6.209 150 13.856 L 150 36.144 C 150 43.791 143.791 50 136.144 50 L -36.144 50 C -43.791 50 -50 43.791 -50 36.144 L -50 13.856 C -50 6.209 -43.791 0 -36.144 0 Z" style="stroke:none;fill:#2930BD;stroke-miterlimit:10;"/><path d=" M 169.008 31.644 L 156.5 39.963 L 143.992 48.282 C 138.477 51.95 134 49.551 134 42.928 L 134 24.999 L 134 7.07 C 134 0.447 138.477 -1.952 143.992 1.715 L 156.5 10.034 L 169.008 18.353 C 174.523 22.021 174.523 27.977 169.008 31.644 Z " fill="rgb(41,48,189)"/><path d=" M -13.891 28.14 L -32 42.75 L -50.109 57.36 C -52.256 59.093 -54 58.26 -54 55.5 L -54 25 L -54 -5.5 C -54 -8.26 -52.256 -9.093 -50.109 -7.36 L -32 7.25 L -13.891 21.86 C -11.744 23.593 -11.744 26.407 -13.891 28.14 Z " fill="rgb(255,255,255)"/><g transform="matrix(1,0,0,1,-8,2.211)"><text transform="matrix(1,0,0,1,0,35.352)" style="font-family:&quot;Overpass Mono&quot;;font-weight:700;font-size:36px;font-style:normal;fill:#ffffff;stroke:none;">Eduship</text></g></svg>